<svg xmlns="http://www.w3.org/2000/svg" version="1.1" xmlns:xlink="http://www.w3.org/1999/xlink" xmlns:svgjs="http://svgjs.dev/svgjs" width="2000" height="388" viewBox="0 0 2000 388"><g transform="matrix(1,0,0,1,-1.2121212121212466,-0.8341061843908619)"><svg viewBox="0 0 396 77" data-background-color="#ffffff" preserveAspectRatio="xMidYMid meet" height="388" width="2000" xmlns="http://www.w3.org/2000/svg" xmlns:xlink="http://www.w3.org/1999/xlink"><g id="tight-bounds" transform="matrix(1,0,0,1,0.2400000000000091,0.16553138195385486)"><svg viewBox="0 0 395.52 76.66893723609229" height="76.66893723609229" width="395.52"><g><svg viewBox="0 0 670.641084336767 129.99934062237173" height="76.66893723609229" width="395.52"><g transform="matrix(1,0,0,1,275.121084336767,0)"><svg viewBox="0 0 395.52 129.99934062237173" height="129.99934062237173" width="395.52"><g id="textblocktransform"><svg viewBox="0 0 395.52 129.99934062237173" height="129.99934062237173" width="395.52" id="textblock"><g><svg viewBox="0 0 395.52 129.99934062237173" height="129.99934062237173" width="395.52"><g transform="matrix(1,0,0,1,0,0)"><svg width="395.52" viewBox="0.44 -37.7 145.13 47.71" height="129.99934062237173" data-palette-color="#4e64f3"><g class="wordmark-text-0" data-fill-palette-color="primary" id="text-0"><path d="M17.94-28L17.94 0 10.96 0 10.96-28 0.44-28 0.44-35.01 28.44-35.01 28.44-28 17.94-28ZM39.3-33.25L39.3-33.25Q39.3-32.32 38.95-31.52 38.6-30.71 37.99-30.11 37.38-29.52 36.56-29.16 35.74-28.81 34.81-28.81L34.81-28.81Q33.88-28.81 33.07-29.16 32.25-29.52 31.65-30.11 31.05-30.71 30.7-31.52 30.34-32.32 30.34-33.25L30.34-33.25Q30.34-34.16 30.7-34.97 31.05-35.79 31.65-36.39 32.25-36.99 33.07-37.34 33.88-37.7 34.81-37.7L34.81-37.7Q35.74-37.7 36.56-37.34 37.38-36.99 37.99-36.39 38.6-35.79 38.95-34.97 39.3-34.16 39.3-33.25ZM38.16-26.15L38.16 0 31.44 0 31.44-26.15 38.16-26.15ZM49.9-14.94L49.9 0 43.23 0 43.23-26.15 44.84-26.15 47.04-23.61Q48.65-25.07 50.69-25.87 52.73-26.66 54.95-26.66L54.95-26.66Q57.34-26.66 59.47-25.74 61.59-24.83 63.18-23.23 64.77-21.63 65.68-19.49 66.6-17.36 66.6-14.94L66.6-14.94 66.6 0 59.93 0 59.93-14.94Q59.93-15.97 59.54-16.88 59.15-17.8 58.47-18.48 57.78-19.17 56.88-19.56 55.98-19.95 54.95-19.95L54.95-19.95Q53.9-19.95 52.97-19.56 52.05-19.17 51.36-18.48 50.68-17.8 50.29-16.88 49.9-15.97 49.9-14.94L49.9-14.94ZM89.93-13.31L89.93-13.31Q89.93-14.67 89.41-15.95 88.88-17.24 87.98-18.23 87.08-19.21 85.87-19.81 84.66-20.41 83.29-20.41L83.29-20.41Q81.93-20.41 80.72-19.95 79.51-19.48 78.62-18.58 77.73-17.68 77.21-16.35 76.7-15.01 76.7-13.31L76.7-13.31Q76.7-11.67 77.21-10.36 77.73-9.06 78.62-8.13 79.51-7.2 80.72-6.7 81.93-6.2 83.29-6.2L83.29-6.2Q84.66-6.2 85.87-6.8 87.08-7.4 87.98-8.39 88.88-9.38 89.41-10.66 89.93-11.94 89.93-13.31ZM96.65-26.1L96.65-3.3Q96.65-0.54 95.6 1.88 94.55 4.3 92.73 6.1 90.91 7.91 88.48 8.96 86.05 10.01 83.29 10.01L83.29 10.01 79.95 9.96 79.95 3.3 83.24 3.34Q84.81 3.34 85.91 2.94 87 2.54 87.76 1.84 88.52 1.15 88.97 0.24 89.42-0.66 89.69-1.66L89.69-1.66Q89.3-1.03 88.57-0.62 87.83-0.22 86.94 0.04 86.05 0.29 85.09 0.39 84.12 0.49 83.29 0.49L83.29 0.49Q80.53 0.49 78.11-0.46 75.68-1.42 73.86-3.19 72.04-4.96 70.99-7.52 69.94-10.08 69.94-13.31L69.94-13.31Q69.94-16.26 70.99-18.8 72.04-21.34 73.86-23.19 75.68-25.05 78.11-26.1 80.53-27.15 83.29-27.15L83.29-27.15Q84.56-27.15 85.81-26.83 87.05-26.51 88.22-25.95 89.4-25.39 90.46-24.63 91.52-23.88 92.45-23L92.45-23 95.04-26.1 96.65-26.1ZM124.62-21.46L112.12-6.4Q112.51-6.27 112.91-6.24 113.3-6.2 113.69-6.2L113.69-6.2Q114.66-6.2 115.57-6.47 116.47-6.74 117.26-7.24 118.06-7.74 118.68-8.46 119.3-9.18 119.69-10.06L119.69-10.06 124.57-5.15Q123.65-3.83 122.44-2.78 121.23-1.73 119.83-1 118.42-0.27 116.87 0.11 115.32 0.49 113.69 0.49L113.69 0.49Q110.93 0.49 108.5-0.54 106.07-1.56 104.25-3.39 102.43-5.22 101.38-7.75 100.33-10.28 100.33-13.31L100.33-13.31Q100.33-16.41 101.38-18.97 102.43-21.53 104.25-23.34 106.07-25.15 108.5-26.15 110.93-27.15 113.69-27.15L113.69-27.15Q115.32-27.15 116.88-26.76 118.45-26.37 119.85-25.63 121.25-24.9 122.48-23.84 123.7-22.78 124.62-21.46L124.62-21.46ZM107.78-9.84L115.54-20.14Q115.08-20.31 114.63-20.36 114.17-20.41 113.69-20.41L113.69-20.41Q112.32-20.41 111.11-19.91 109.9-19.41 109.01-18.48 108.12-17.55 107.61-16.25 107.09-14.94 107.09-13.31L107.09-13.31Q107.09-12.94 107.13-12.48 107.17-12.01 107.25-11.54 107.34-11.06 107.46-10.62 107.58-10.18 107.78-9.84L107.78-9.84ZM134.63-14.4L134.63 0 127.97 0 127.97-26.15 129.58-26.15 131.77-23.05Q133.39-24.51 135.44-25.31 137.49-26.1 139.68-26.1L139.68-26.1 145.57-26.1 145.57-19.46 139.68-19.46Q138.63-19.46 137.71-19.07 136.78-18.68 136.1-17.99 135.41-17.31 135.02-16.38 134.63-15.45 134.63-14.4L134.63-14.4Z" fill="#4e64f3" data-fill-palette-color="primary"></path></g></svg></g></svg></g></svg></g></svg></g><g transform="matrix(1,0,0,1,0,6.336143911185879)"><svg viewBox="0 0 244.43135999999996 117.32705279999998" height="117.32705279999998" width="244.43135999999996"><g><svg xmlns="http://www.w3.org/2000/svg" xmlns:xlink="http://www.w3.org/1999/xlink" version="1.1" x="0" y="0" viewBox="5 28.4 90 43.199999999999996" enable-background="new 0 0 100 100" xml:space="preserve" height="117.32705279999998" width="244.43135999999996" class="icon-icon-0" data-fill-palette-color="accent" id="icon-0"><path d="M73.4 28.4c-0.7 0-1.5 0-2.3 0.1-0.1 0-0.2 0-0.3 0-0.1 0-0.3 0-0.4 0.1-9.5 1.4-16.9 9.1-24.1 16.5-6 6.2-12.2 12.6-18.2 13.6-0.6 0.1-1.1 0.1-1.5 0.1-5 0-9-4-9-9s4-9 9-9c0.3 0 0.6 0 0.9 0.1 2.3 0.3 4.9 1.6 7.9 4 0.7 0.6 1.9 1 2.8 1 3.2 0 6.1-3.5 6.7-5.3 0.7-1.9 0.1-4-1.4-5.2-4.6-3.7-9-5.9-13.3-6.7-0.2 0-0.4-0.1-0.7-0.1-1-0.1-2-0.2-2.9-0.2C14.7 28.4 5 38.1 5 50s9.7 21.6 21.6 21.6c0.6 0 1.2 0 1.7-0.1 11-0.8 19.6-9.7 27.1-17.5 5.9-6.2 11.6-12 16.8-12.8C72.6 41 73 41 73.4 41c5 0 9 4 9 9s-4 9-9 9c-0.4 0-0.8 0-1.4-0.1-0.3-0.1-0.6-0.1-1-0.2-2-0.5-4-1.5-6.3-3.2-0.8-0.6-1.7-0.9-2.7-0.9-3.3 0-6.1 3.5-6.7 5.5-0.7 2-0.1 4 1.5 5.2 5.6 4.2 11.1 6.3 16.6 6.3C85.3 71.5 95 61.8 95 50S85.3 28.4 73.4 28.4z" fill="#b10dc9" data-fill-palette-color="accent"></path></svg></g></svg></g></svg></g><defs></defs></svg><rect width="395.52" height="76.66893723609229" fill="none" stroke="none" visibility="hidden"></rect></g></svg></g></svg>